<svg xmlns="http://www.w3.org/2000/svg" xmlns:xlink="http://www.w3.org/1999/xlink" width="500" zoomAndPan="magnify" viewBox="0 0 375 374.999991" height="500" preserveAspectRatio="xMidYMid meet" version="1.0"><defs><g/><clipPath id="b3ed76927a"><path d="M 0 132.191406 L 135 132.191406 L 135 242.699219 L 0 242.699219 Z M 0 132.191406 " clip-rule="nonzero"/></clipPath></defs><g clip-path="url(#b3ed76927a)"><path fill="#ffffff" d="M 116.730469 132.316406 L 81.164062 176.070312 L 121.933594 209.234375 L 107.304688 208.804688 L 68.464844 177.414062 L 105.128906 132.285156 Z M 120.25 242.699219 L 69.6875 202.117188 L 51.355469 224.835938 L 39.664062 224.929688 L 68.308594 189.445312 L 134.632812 242.699219 Z M 15.542969 132.527344 L 54.75 164.011719 L 80.429688 132.191406 L 91.9375 132.191406 L 56.097656 176.683594 L 0.761719 132.222656 Z M 2.046875 242.699219 L 44.285156 191.21875 L 5.015625 159.550781 L 19.460938 159.550781 L 57.015625 189.902344 L 14.136719 242.699219 Z M 2.046875 242.699219 " fill-opacity="1" fill-rule="nonzero"/></g><g fill="#ffffff" fill-opacity="1"><g transform="translate(109.576224, 184.366079)"><g><path d="M 17.8125 -14.671875 L 28.484375 0 L 23.1875 0 L 15.078125 -11.53125 L 6.796875 0 L 1.71875 0 L 12.328125 -14.5 L 2.515625 -27.96875 L 7.828125 -27.96875 L 15.125 -17.46875 L 22.671875 -27.96875 L 27.8125 -27.96875 Z M 17.8125 -14.671875 "/></g></g></g><g fill="#ffffff" fill-opacity="1"><g transform="translate(139.775478, 184.366079)"><g><path d="M 26.890625 -27.96875 L 31.171875 -27.96875 L 31.171875 0 L 26.890625 0 L 26.890625 -4.28125 C 25.710938 -2.800781 24.226562 -1.617188 22.4375 -0.734375 C 20.644531 0.140625 18.703125 0.578125 16.609375 0.578125 C 14.054688 0.578125 11.675781 -0.0546875 9.46875 -1.328125 C 7.269531 -2.609375 5.519531 -4.363281 4.21875 -6.59375 C 2.925781 -8.820312 2.28125 -11.285156 2.28125 -13.984375 C 2.28125 -16.691406 2.925781 -19.15625 4.21875 -21.375 C 5.519531 -23.601562 7.269531 -25.351562 9.46875 -26.625 C 11.675781 -27.90625 14.054688 -28.546875 16.609375 -28.546875 C 18.703125 -28.546875 20.644531 -28.109375 22.4375 -27.234375 C 24.226562 -26.359375 25.710938 -25.175781 26.890625 -23.6875 Z M 16.953125 -3.421875 C 18.816406 -3.421875 20.53125 -3.882812 22.09375 -4.8125 C 23.65625 -5.75 24.890625 -7.015625 25.796875 -8.609375 C 26.710938 -10.210938 27.171875 -12.003906 27.171875 -13.984375 C 27.171875 -15.960938 26.710938 -17.75 25.796875 -19.34375 C 24.890625 -20.945312 23.65625 -22.210938 22.09375 -23.140625 C 20.53125 -24.078125 18.816406 -24.546875 16.953125 -24.546875 C 15.085938 -24.546875 13.375 -24.078125 11.8125 -23.140625 C 10.257812 -22.210938 9.023438 -20.945312 8.109375 -19.34375 C 7.191406 -17.75 6.734375 -15.960938 6.734375 -13.984375 C 6.734375 -12.003906 7.191406 -10.210938 8.109375 -8.609375 C 9.023438 -7.015625 10.257812 -5.75 11.8125 -4.8125 C 13.375 -3.882812 15.085938 -3.421875 16.953125 -3.421875 Z M 16.953125 -3.421875 "/></g></g></g><g fill="#ffffff" fill-opacity="1"><g transform="translate(175.226758, 184.366079)"><g><path d="M 35.109375 -28.546875 C 37.171875 -28.546875 39 -28.019531 40.59375 -26.96875 C 42.1875 -25.925781 43.429688 -24.5 44.328125 -22.6875 C 45.222656 -20.882812 45.671875 -18.84375 45.671875 -16.5625 L 45.671875 0 L 41.390625 0 L 41.390625 -16.5625 C 41.390625 -18.882812 40.769531 -20.796875 39.53125 -22.296875 C 38.300781 -23.796875 36.640625 -24.546875 34.546875 -24.546875 C 33.210938 -24.546875 31.984375 -24.191406 30.859375 -23.484375 C 29.734375 -22.785156 28.828125 -21.828125 28.140625 -20.609375 C 27.460938 -19.390625 27.125 -18.039062 27.125 -16.5625 L 27.125 0 L 22.84375 0 L 22.84375 -16.5625 C 22.84375 -18.882812 22.222656 -20.796875 20.984375 -22.296875 C 19.742188 -23.796875 18.078125 -24.546875 15.984375 -24.546875 C 14.648438 -24.546875 13.421875 -24.191406 12.296875 -23.484375 C 11.179688 -22.785156 10.28125 -21.828125 9.59375 -20.609375 C 8.90625 -19.390625 8.5625 -18.039062 8.5625 -16.5625 L 8.5625 0 L 4.28125 0 L 4.28125 -27.96875 L 8.5625 -27.96875 L 8.5625 -24.265625 C 9.550781 -25.671875 10.726562 -26.734375 12.09375 -27.453125 C 13.46875 -28.179688 14.957031 -28.546875 16.5625 -28.546875 C 18.5 -28.546875 20.296875 -28.019531 21.953125 -26.96875 C 23.609375 -25.925781 24.851562 -24.550781 25.6875 -22.84375 C 26.675781 -24.664062 27.988281 -26.070312 29.625 -27.0625 C 31.269531 -28.050781 33.097656 -28.546875 35.109375 -28.546875 Z M 35.109375 -28.546875 "/></g></g></g><g fill="#ffffff" fill-opacity="1"><g transform="translate(224.892813, 184.366079)"><g><path d="M 44.359375 -19.984375 C 44.359375 -16.828125 43.691406 -13.867188 42.359375 -11.109375 C 41.023438 -8.347656 39.195312 -5.992188 36.875 -4.046875 L 44.015625 4.28125 L 38.59375 4.28125 L 33.40625 -1.765625 C 30.394531 -0.203125 27.175781 0.578125 23.75 0.578125 C 19.976562 0.578125 16.515625 -0.332031 13.359375 -2.15625 C 10.203125 -3.988281 7.707031 -6.484375 5.875 -9.640625 C 4.050781 -12.804688 3.140625 -16.253906 3.140625 -19.984375 C 3.140625 -23.710938 4.050781 -27.15625 5.875 -30.3125 C 7.707031 -33.476562 10.203125 -35.972656 13.359375 -37.796875 C 16.515625 -39.617188 19.976562 -40.53125 23.75 -40.53125 C 27.519531 -40.53125 30.984375 -39.617188 34.140625 -37.796875 C 37.296875 -35.972656 39.785156 -33.476562 41.609375 -30.3125 C 43.441406 -27.15625 44.359375 -23.710938 44.359375 -19.984375 Z M 23.75 -3.71875 C 26.144531 -3.71875 28.390625 -4.210938 30.484375 -5.203125 L 21.75 -15.421875 L 27.171875 -15.421875 L 33.96875 -7.484375 C 35.757812 -9.003906 37.148438 -10.835938 38.140625 -12.984375 C 39.128906 -15.140625 39.625 -17.472656 39.625 -19.984375 C 39.625 -22.992188 38.910156 -25.734375 37.484375 -28.203125 C 36.054688 -30.679688 34.132812 -32.640625 31.71875 -34.078125 C 29.300781 -35.523438 26.644531 -36.25 23.75 -36.25 C 20.851562 -36.25 18.195312 -35.523438 15.78125 -34.078125 C 13.363281 -32.640625 11.441406 -30.679688 10.015625 -28.203125 C 8.585938 -25.734375 7.875 -22.992188 7.875 -19.984375 C 7.875 -16.972656 8.585938 -14.226562 10.015625 -11.75 C 11.441406 -9.28125 13.363281 -7.320312 15.78125 -5.875 C 18.195312 -4.4375 20.851562 -3.71875 23.75 -3.71875 Z M 23.75 -3.71875 "/></g></g></g><g fill="#ffffff" fill-opacity="1"><g transform="translate(272.389553, 184.366079)"><g><path d="M 26.3125 -27.96875 L 30.609375 -27.96875 L 30.609375 -1.71875 C 30.609375 0.914062 30.015625 3.273438 28.828125 5.359375 C 27.648438 7.453125 26.003906 9.078125 23.890625 10.234375 C 21.773438 11.398438 19.347656 11.984375 16.609375 11.984375 C 13.335938 11.984375 10.503906 11.117188 8.109375 9.390625 C 5.710938 7.660156 4.078125 5.289062 3.203125 2.28125 L 7.484375 2.28125 C 8.160156 4.03125 9.304688 5.421875 10.921875 6.453125 C 12.546875 7.484375 14.441406 8 16.609375 8 C 19.578125 8 21.9375 7.101562 23.6875 5.3125 C 25.4375 3.519531 26.3125 1.175781 26.3125 -1.71875 L 26.3125 -5.359375 C 25.101562 -3.878906 23.648438 -2.710938 21.953125 -1.859375 C 20.253906 -1.003906 18.378906 -0.578125 16.328125 -0.578125 C 13.742188 -0.578125 11.382812 -1.164062 9.25 -2.34375 C 7.113281 -3.519531 5.414062 -5.171875 4.15625 -7.296875 C 2.90625 -9.429688 2.28125 -11.851562 2.28125 -14.5625 C 2.28125 -17.257812 2.90625 -19.671875 4.15625 -21.796875 C 5.414062 -23.929688 7.113281 -25.585938 9.25 -26.765625 C 11.382812 -27.953125 13.742188 -28.546875 16.328125 -28.546875 C 18.378906 -28.546875 20.253906 -28.117188 21.953125 -27.265625 C 23.648438 -26.410156 25.101562 -25.238281 26.3125 -23.75 Z M 16.671875 -4.5625 C 18.535156 -4.5625 20.226562 -5 21.75 -5.875 C 23.269531 -6.75 24.457031 -7.945312 25.3125 -9.46875 C 26.175781 -11 26.609375 -12.695312 26.609375 -14.5625 C 26.609375 -16.425781 26.175781 -18.117188 25.3125 -19.640625 C 24.457031 -21.160156 23.269531 -22.359375 21.75 -23.234375 C 20.226562 -24.109375 18.535156 -24.546875 16.671875 -24.546875 C 14.804688 -24.546875 13.113281 -24.109375 11.59375 -23.234375 C 10.070312 -22.359375 8.878906 -21.160156 8.015625 -19.640625 C 7.160156 -18.117188 6.734375 -16.425781 6.734375 -14.5625 C 6.734375 -12.695312 7.160156 -11 8.015625 -9.46875 C 8.878906 -7.945312 10.070312 -6.75 11.59375 -5.875 C 13.113281 -5 14.804688 -4.5625 16.671875 -4.5625 Z M 16.671875 -4.5625 "/></g></g></g><g fill="#ffffff" fill-opacity="1"><g transform="translate(307.269985, 184.366079)"><g><path d="M 16.328125 -28.546875 C 18.878906 -28.546875 21.207031 -27.960938 23.3125 -26.796875 C 25.425781 -25.640625 27.09375 -24.003906 28.3125 -21.890625 C 29.53125 -19.785156 30.140625 -17.378906 30.140625 -14.671875 C 30.140625 -13.753906 30.101562 -13.050781 30.03125 -12.5625 L 6.796875 -12.5625 C 7.054688 -9.78125 8.035156 -7.5625 9.734375 -5.90625 C 11.429688 -4.25 13.628906 -3.421875 16.328125 -3.421875 C 20.285156 -3.421875 23.140625 -5.039062 24.890625 -8.28125 L 29.453125 -8.28125 C 28.316406 -5.425781 26.625 -3.234375 24.375 -1.703125 C 22.132812 -0.179688 19.453125 0.578125 16.328125 0.578125 C 13.703125 0.578125 11.3125 -0.0546875 9.15625 -1.328125 C 7.007812 -2.609375 5.328125 -4.351562 4.109375 -6.5625 C 2.890625 -8.769531 2.28125 -11.242188 2.28125 -13.984375 C 2.28125 -16.722656 2.890625 -19.195312 4.109375 -21.40625 C 5.328125 -23.613281 7.007812 -25.351562 9.15625 -26.625 C 11.3125 -27.90625 13.703125 -28.546875 16.328125 -28.546875 Z M 16.328125 -24.546875 C 13.816406 -24.546875 11.734375 -23.820312 10.078125 -22.375 C 8.421875 -20.9375 7.382812 -18.957031 6.96875 -16.4375 L 25.640625 -16.4375 C 25.367188 -18.875 24.367188 -20.832031 22.640625 -22.3125 C 20.910156 -23.800781 18.804688 -24.546875 16.328125 -24.546875 Z M 16.328125 -24.546875 "/></g></g></g><g fill="#ffffff" fill-opacity="1"><g transform="translate(339.410221, 184.366079)"><g><path d="M 17.40625 -28.546875 C 19.65625 -28.546875 21.644531 -28.003906 23.375 -26.921875 C 25.113281 -25.835938 26.457031 -24.363281 27.40625 -22.5 C 28.351562 -20.632812 28.828125 -18.554688 28.828125 -16.265625 L 28.828125 0 L 24.546875 0 L 24.546875 -16.265625 C 24.546875 -18.742188 23.859375 -20.742188 22.484375 -22.265625 C 21.117188 -23.785156 19.238281 -24.546875 16.84375 -24.546875 C 15.320312 -24.546875 13.929688 -24.191406 12.671875 -23.484375 C 11.421875 -22.785156 10.421875 -21.804688 9.671875 -20.546875 C 8.929688 -19.296875 8.5625 -17.867188 8.5625 -16.265625 L 8.5625 0 L 4.28125 0 L 4.28125 -27.96875 L 8.5625 -27.96875 L 8.5625 -24.265625 C 9.707031 -25.671875 11.03125 -26.734375 12.53125 -27.453125 C 14.03125 -28.179688 15.65625 -28.546875 17.40625 -28.546875 Z M 17.40625 -28.546875 "/></g></g></g></svg>